HIERARCHY
ROOT newVegas:Hips
{
	OFFSET 0.000000 96.479958 0.000000
	CHANNELS 6 Xposition Yposition Zposition Xrotation Yrotation Zrotation
	JOINT newVegas:Pelvis
	{
		OFFSET 0.000000 0.000000 0.000000
		CHANNELS 3 Xrotation Yrotation Zrotation
		JOINT newVegas:LeftUpLeg
		{
			OFFSET 18.735201 -5.666702 -4.541200
			CHANNELS 3 Xrotation Yrotation Zrotation
			JOINT newVegas:LeftLeg
			{
				OFFSET -0.021200 -31.938179 0.493100
				CHANNELS 3 Xrotation Yrotation Zrotation
				JOINT newVegas:LeftFoot
				{
					OFFSET 0.021200 -31.938179 -4.336299
					CHANNELS 3 Xrotation Yrotation Zrotation
					JOINT newVegas:LeftToeBase
					{
						OFFSET 0.943001 -26.722000 15.023500
						CHANNELS 3 Xrotation Yrotation Zrotation
						End Site
						{
							OFFSET 0.000000 30.670183 0.000000
						}
					}
				}
				JOINT newVegas:Left_PantLeg
				{
					OFFSET 0.663870 -9.044666 -1.108900
					CHANNELS 3 Xrotation Yrotation Zrotation
					End Site
					{
						OFFSET 1.415995 20.635357 0.000000
					}
				}
			}
		}
		JOINT newVegas:RightUpLeg
		{
			OFFSET -18.735201 -5.666702 -4.541200
			CHANNELS 3 Xrotation Yrotation Zrotation
			JOINT newVegas:RightLeg
			{
				OFFSET 0.018946 -31.938133 0.493100
				CHANNELS 3 Xrotation Yrotation Zrotation
				JOINT newVegas:RightFoot
				{
					OFFSET -0.018946 -31.938126 -4.336299
					CHANNELS 3 Xrotation Yrotation Zrotation
					JOINT newVegas:RightToeBase
					{
						OFFSET -0.943001 -26.722004 15.023500
						CHANNELS 3 Xrotation Yrotation Zrotation
						End Site
						{
							OFFSET 0.000000 30.670187 0.000000
						}
					}
				}
				JOINT newVegas:Right_PantLeg
				{
					OFFSET -0.661674 -9.044716 -1.108900
					CHANNELS 3 Xrotation Yrotation Zrotation
					End Site
					{
						OFFSET -1.415958 20.635269 0.000000
					}
				}
			}
		}
	}
	JOINT newVegas:Spine
	{
		OFFSET 0.000000 10.199997 -0.299500
		CHANNELS 3 Xrotation Yrotation Zrotation
		JOINT newVegas:Spine1
		{
			OFFSET 0.000000 11.900002 -1.516600
			CHANNELS 3 Xrotation Yrotation Zrotation
			JOINT newVegas:Spine2
			{
				OFFSET 0.000000 13.600006 -2.842500
				CHANNELS 3 Xrotation Yrotation Zrotation
				JOINT newVegas:Neck
				{
					OFFSET 0.000000 9.624100 -2.890100
					CHANNELS 3 Xrotation Yrotation Zrotation
					JOINT newVegas:Head
					{
						OFFSET 0.000000 14.068802 -1.351900
						CHANNELS 3 Xrotation Yrotation Zrotation
						JOINT newVegas:Hair_Back
						{
							OFFSET 0.000000 3.231903 -17.524799
							CHANNELS 3 Xrotation Yrotation Zrotation
							End Site
							{
								OFFSET 0.000000 19.849884 0.000000
							}
						}
						JOINT newVegas:Hair_Front
						{
							OFFSET 0.000000 31.260406 4.573800
							CHANNELS 3 Xrotation Yrotation Zrotation
							JOINT newVegas:Hair_Front1
							{
								OFFSET 0.000000 2.284103 11.993300
								CHANNELS 3 Xrotation Yrotation Zrotation
								JOINT newVegas:Hair_Front2
								{
									OFFSET 0.000000 2.284103 11.993300
									CHANNELS 3 Xrotation Yrotation Zrotation
									End Site
									{
										OFFSET 0.000000 12.208862 0.000000
									}
								}
							}
						}
						JOINT newVegas:Jowel
						{
							OFFSET 0.000000 -7.458206 6.864100
							CHANNELS 3 Xrotation Yrotation Zrotation
							End Site
							{
								OFFSET 0.000000 19.849884 0.000000
							}
						}
					}
				}
				JOINT newVegas:LeftShoulder
				{
					OFFSET 15.263000 10.923401 -0.547700
					CHANNELS 3 Xrotation Yrotation Zrotation
					JOINT newVegas:LeftArm
					{
						OFFSET 25.438599 -2.830597 -13.032500
						CHANNELS 3 Xrotation Yrotation Zrotation
						JOINT newVegas:LeftForeArm
						{
							OFFSET 29.960503 0.000000 0.000000
							CHANNELS 3 Xrotation Yrotation Zrotation
							JOINT newVegas:LeftHand
							{
								OFFSET 27.849251 0.000000 0.000000
								CHANNELS 3 Xrotation Yrotation Zrotation
								JOINT newVegas:LeftHandThumb1
								{
									OFFSET 4.487587 -3.305161 6.305391
									CHANNELS 3 Xrotation Yrotation Zrotation
									JOINT newVegas:LeftHandThumb2
									{
										OFFSET 5.480453 -3.164139 3.164143
										CHANNELS 3 Xrotation Yrotation Zrotation
										JOINT newVegas:LeftHandThumb3
										{
											OFFSET 5.159721 -2.978973 2.978967
											CHANNELS 3 Xrotation Yrotation Zrotation
											End Site
											{
												OFFSET 2.494507 5.926697 1.738678
											}
										}
									}
								}
								JOINT newVegas:LeftHandIndex1
								{
									OFFSET 18.578728 -0.527832 5.208049
									CHANNELS 3 Xrotation Yrotation Zrotation
									JOINT newVegas:LeftHandIndex2
									{
										OFFSET 3.192009 0.000000 0.000000
										CHANNELS 3 Xrotation Yrotation Zrotation
										JOINT newVegas:LeftHandIndex3
										{
											OFFSET 3.835129 0.000000 0.000000
											CHANNELS 3 Xrotation Yrotation Zrotation
											End Site
											{
												OFFSET -0.034599 3.816971 0.371180
											}
										}
									}
								}
								JOINT newVegas:LeftHandMiddle1
								{
									OFFSET 18.476105 0.000000 0.000000
									CHANNELS 3 Xrotation Yrotation Zrotation
									JOINT newVegas:LeftHandMiddle2
									{
										OFFSET 3.324875 0.000000 0.000000
										CHANNELS 3 Xrotation Yrotation Zrotation
										JOINT newVegas:LeftHandMiddle3
										{
											OFFSET 4.596550 0.000000 0.000000
											CHANNELS 3 Xrotation Yrotation Zrotation
											End Site
											{
												OFFSET 0.057701 4.578827 0.399218
											}
										}
									}
								}
								JOINT newVegas:LeftHandRing1
								{
									OFFSET 17.732719 0.121887 -4.201567
									CHANNELS 3 Xrotation Yrotation Zrotation
									JOINT newVegas:LeftHandRing2
									{
										OFFSET 2.733170 0.000000 0.000000
										CHANNELS 3 Xrotation Yrotation Zrotation
										JOINT newVegas:LeftHandRing3
										{
											OFFSET 3.178268 0.000000 0.000000
											CHANNELS 3 Xrotation Yrotation Zrotation
											End Site
											{
												OFFSET 0.119102 3.170624 0.185394
											}
										}
									}
								}
								JOINT newVegas:LeftHandPinky1
								{
									OFFSET 15.989624 -0.606689 -7.535461
									CHANNELS 3 Xrotation Yrotation Zrotation
									JOINT newVegas:LeftHandPinky2
									{
										OFFSET 2.538986 0.000000 0.000000
										CHANNELS 3 Xrotation Yrotation Zrotation
										JOINT newVegas:LeftHandPinky3
										{
											OFFSET 2.593102 0.000000 0.000000
											CHANNELS 3 Xrotation Yrotation Zrotation
											End Site
											{
												OFFSET -0.150902 2.584198 0.152708
											}
										}
									}
								}
							}
							JOINT newVegas:Left_Sleeve
							{
								OFFSET 0.267448 -0.649796 0.577675
								CHANNELS 3 Xrotation Yrotation Zrotation
								End Site
								{
									OFFSET 0.000000 15.991241 0.000000
								}
							}
							JOINT newVegas:Left_CapeC
							{
								OFFSET 15.715958 -8.608795 -6.935905
								CHANNELS 3 Xrotation Yrotation Zrotation
								JOINT newVegas:Left_CapeC1
								{
									OFFSET 0.000000 -8.688499 0.000000
									CHANNELS 3 Xrotation Yrotation Zrotation
									End Site
									{
										OFFSET 0.000000 8.688499 0.000000
									}
								}
							}
						}
						JOINT newVegas:Left_CapeB
						{
							OFFSET 26.118385 -8.608795 -7.079235
							CHANNELS 3 Xrotation Yrotation Zrotation
							JOINT newVegas:Left_CapeB1
							{
								OFFSET 0.000000 -8.688499 0.000000
								CHANNELS 3 Xrotation Yrotation Zrotation
								End Site
								{
									OFFSET 0.000000 8.688499 0.000000
								}
							}
						}
						JOINT newVegas:Left_CapeA
						{
							OFFSET 5.115639 -8.608795 -10.395809
							CHANNELS 3 Xrotation Yrotation Zrotation
							JOINT newVegas:Left_CapeA1
							{
								OFFSET 0.000000 -8.688499 0.000000
								CHANNELS 3 Xrotation Yrotation Zrotation
								End Site
								{
									OFFSET 0.000000 8.688499 0.000000
								}
							}
						}
					}
				}
				JOINT newVegas:RightShoulder
				{
					OFFSET -15.263000 10.923401 -0.547700
					CHANNELS 3 Xrotation Yrotation Zrotation
					JOINT newVegas:RightArm
					{
						OFFSET -25.438599 -2.830597 -13.032500
						CHANNELS 3 Xrotation Yrotation Zrotation
						JOINT newVegas:RightForeArm
						{
							OFFSET -29.960503 0.000000 0.000000
							CHANNELS 3 Xrotation Yrotation Zrotation
							JOINT newVegas:RightHand
							{
								OFFSET -27.849251 0.000000 0.000000
								CHANNELS 3 Xrotation Yrotation Zrotation
								JOINT newVegas:RightHandThumb1
								{
									OFFSET -4.487587 -3.305161 6.305391
									CHANNELS 3 Xrotation Yrotation Zrotation
									JOINT newVegas:RightHandThumb2
									{
										OFFSET -5.480453 -3.164139 3.164143
										CHANNELS 3 Xrotation Yrotation Zrotation
										JOINT newVegas:RightHandThumb3
										{
											OFFSET -5.159721 -2.978973 2.978967
											CHANNELS 3 Xrotation Yrotation Zrotation
											End Site
											{
												OFFSET -2.494507 5.926697 1.738678
											}
										}
									}
								}
								JOINT newVegas:RightHandIndex1
								{
									OFFSET -18.578728 -0.527832 5.208049
									CHANNELS 3 Xrotation Yrotation Zrotation
									JOINT newVegas:RightHandIndex2
									{
										OFFSET -3.192009 0.000000 0.000000
										CHANNELS 3 Xrotation Yrotation Zrotation
										JOINT newVegas:RightHandIndex3
										{
											OFFSET -3.835129 0.000000 0.000000
											CHANNELS 3 Xrotation Yrotation Zrotation
											End Site
											{
												OFFSET 0.034599 3.816971 0.371180
											}
										}
									}
								}
								JOINT newVegas:RightHandMiddle1
								{
									OFFSET -18.476105 0.000000 0.000000
									CHANNELS 3 Xrotation Yrotation Zrotation
									JOINT newVegas:RightHandMiddle2
									{
										OFFSET -3.324875 0.000000 0.000000
										CHANNELS 3 Xrotation Yrotation Zrotation
										JOINT newVegas:RightHandMiddle3
										{
											OFFSET -4.596550 0.000000 0.000000
											CHANNELS 3 Xrotation Yrotation Zrotation
											End Site
											{
												OFFSET -0.057701 4.578827 0.399218
											}
										}
									}
								}
								JOINT newVegas:RightHandRing1
								{
									OFFSET -17.732719 0.121887 -4.201567
									CHANNELS 3 Xrotation Yrotation Zrotation
									JOINT newVegas:RightHandRing2
									{
										OFFSET -2.733170 0.000000 0.000000
										CHANNELS 3 Xrotation Yrotation Zrotation
										JOINT newVegas:RightHandRing3
										{
											OFFSET -3.178268 0.000000 0.000000
											CHANNELS 3 Xrotation Yrotation Zrotation
											End Site
											{
												OFFSET -0.119102 3.170624 0.185394
											}
										}
									}
								}
								JOINT newVegas:RightHandPinky1
								{
									OFFSET -15.989624 -0.606689 -7.535461
									CHANNELS 3 Xrotation Yrotation Zrotation
									JOINT newVegas:RightHandPinky2
									{
										OFFSET -2.538986 0.000000 0.000000
										CHANNELS 3 Xrotation Yrotation Zrotation
										JOINT newVegas:RightHandPinky3
										{
											OFFSET -2.593102 0.000000 0.000000
											CHANNELS 3 Xrotation Yrotation Zrotation
											End Site
											{
												OFFSET 0.150902 2.584198 0.152708
											}
										}
									}
								}
							}
							JOINT newVegas:Right_CapeC
							{
								OFFSET -15.715958 -8.608795 -6.935905
								CHANNELS 3 Xrotation Yrotation Zrotation
								JOINT newVegas:Right_CapeC1
								{
									OFFSET 0.000000 -8.688499 0.000000
									CHANNELS 3 Xrotation Yrotation Zrotation
									End Site
									{
										OFFSET 0.000000 8.688499 0.000000
									}
								}
							}
							JOINT newVegas:Right_Sleeve
							{
								OFFSET -0.267448 -0.649994 0.577675
								CHANNELS 3 Xrotation Yrotation Zrotation
								End Site
								{
									OFFSET 0.000000 15.991302 0.000000
								}
							}
						}
						JOINT newVegas:Right_CapeA
						{
							OFFSET -5.115540 -8.608795 -10.395824
							CHANNELS 3 Xrotation Yrotation Zrotation
							JOINT newVegas:Right_CapeA1
							{
								OFFSET 0.000000 -8.688499 0.000000
								CHANNELS 3 Xrotation Yrotation Zrotation
								End Site
								{
									OFFSET 0.000000 8.688499 0.000000
								}
							}
						}
						JOINT newVegas:Right_CapeB
						{
							OFFSET -26.118187 -8.608795 -7.079266
							CHANNELS 3 Xrotation Yrotation Zrotation
							JOINT newVegas:Right_CapeB1
							{
								OFFSET 0.000000 -8.688499 0.000000
								CHANNELS 3 Xrotation Yrotation Zrotation
								End Site
								{
									OFFSET 0.000000 8.688499 0.000000
								}
							}
						}
					}
				}
				JOINT newVegas:Left_Collar
				{
					OFFSET 18.625099 8.655502 8.828100
					CHANNELS 3 Xrotation Yrotation Zrotation
					JOINT newVegas:Left_Collar1
					{
						OFFSET 14.783401 10.540405 -1.259500
						CHANNELS 3 Xrotation Yrotation Zrotation
						End Site
						{
							OFFSET 0.000000 18.199875 0.000000
						}
					}
				}
				JOINT newVegas:Collar_Back
				{
					OFFSET 0.000000 15.630707 -20.132601
					CHANNELS 3 Xrotation Yrotation Zrotation
					End Site
					{
						OFFSET 0.000000 22.523010 0.000000
					}
				}
				JOINT newVegas:Left_Peck
				{
					OFFSET 17.239599 -5.132599 25.482599
					CHANNELS 3 Xrotation Yrotation Zrotation
					End Site
					{
						OFFSET 0.000000 22.523010 0.000000
					}
				}
				JOINT newVegas:Right_Peck
				{
					OFFSET -17.239599 -5.132202 25.482599
					CHANNELS 3 Xrotation Yrotation Zrotation
					End Site
					{
						OFFSET 0.000000 22.523010 0.000000
					}
				}
				JOINT newVegas:Right_Collar
				{
					OFFSET -18.625099 8.655792 8.828100
					CHANNELS 3 Xrotation Yrotation Zrotation
					JOINT newVegas:Right_Collar1
					{
						OFFSET -14.783401 10.539993 -1.259500
						CHANNELS 3 Xrotation Yrotation Zrotation
						End Site
						{
							OFFSET 0.000000 18.199631 0.000000
						}
					}
				}
			}
		}
		JOINT newVegas:Belly
		{
			OFFSET 0.000000 -6.540398 9.014299
			CHANNELS 3 Xrotation Yrotation Zrotation
			End Site
			{
				OFFSET 0.000000 11.566666 0.000000
			}
		}
	}
	JOINT newVegas:ElvisFacialAnim_Joint
	{
		OFFSET 1.000000 -95.330101 -8.825800
		CHANNELS 3 Xrotation Yrotation Zrotation
		End Site
		{
			OFFSET 0.000000 35.315800 0.000000
		}
	}
}
MOTION
Frames: 4
Frame Time: 0.033333
-2.891056 92.304413 2.895854 -4.070572 -41.318075 0.534225 0.000000 0.000000 0.000000 -22.651084 39.157925 20.879217 28.912030 5.657896 -0.841280 -6.172594 1.653757 -5.893223 -0.000000 0.000000 0.000000 0.000001 -0.000000 -0.000000 -0.910545 4.998499 -14.263888 28.001395 1.394090 1.122486 -20.412167 -19.207952 10.356015 0.000000 0.000002 0.000000 0.000001 0.000004 -0.000002 2.924696 -0.207712 -0.502355 5.848338 -0.390397 -0.876002 5.848342 -0.390387 -0.876005 -0.359069 5.215877 -1.023991 -0.359060 5.215862 -1.023992 -0.000000 -0.000000 -0.000000 -0.359002 5.215876 -1.023995 -0.359141 5.215877 -1.023985 0.000000 0.000002 0.000000 -0.000000 -0.000000 -0.000000 -18.935193 7.366258 -4.623251 -4.189731 -19.755617 -74.317342 -22.453146 -68.272556 -27.042455 -100.597977 -26.404434 17.629799 3.592090 4.185680 -5.133815 1.252887 4.302582 1.889372 0.000001 -0.000000 -0.000003 7.554893 5.560404 -33.410383 -14.917821 -6.767414 -80.641919 -0.000000 -0.000000 0.000000 -0.349210 -1.566820 -62.979241 -6.177657 -6.585486 -60.286180 -0.000003 -0.000002 -0.000001 -5.286462 4.624217 -73.484708 0.757931 -3.521251 -58.282885 -0.000001 -0.000001 -0.000001 -16.248772 1.424911 -86.150597 2.608795 -7.578030 -55.784709 -0.000001 0.000000 0.000000 -0.000000 -0.000000 0.000001 -0.000000 -0.000000 0.000001 -0.000001 -0.000000 0.000001 -0.000003 -0.000002 0.000003 -0.000003 -0.000003 0.000001 -0.000003 -0.000002 0.000003 -0.000004 -0.000001 0.000002 14.829377 0.115992 -0.444127 3.417821 38.360378 41.178777 -8.785607 115.532500 4.763431 -36.084258 -20.019909 4.981671 15.407476 -4.518699 17.010993 11.550412 4.015399 -20.411426 0.000004 -0.000001 -0.000004 1.857069 -0.976102 4.781770 -1.775895 -0.095290 22.317049 0.000001 -0.000001 0.000002 3.631171 5.779729 48.858809 -9.397624 -0.919643 110.759775 0.000000 -0.000002 -0.000000 -8.676839 -5.659677 54.892297 -4.714173 8.864039 96.803766 0.000001 0.000001 0.000001 -12.562924 0.077575 69.885293 -3.484601 14.093143 79.770544 -0.000001 0.000005 -0.000000 -0.000001 0.000000 0.000000 -0.000001 0.000000 0.000000 -0.000001 0.000001 0.000000 0.000000 0.000001 -0.000000 -0.000000 0.000002 -0.000000 0.000000 0.000001 -0.000000 0.000000 0.000002 -0.000000 0.000001 0.000001 -0.000000 0.000001 0.000001 -0.000000 0.000001 0.000001 -0.000000 0.000001 0.000001 -0.000000 0.000001 0.000001 -0.000000 0.000001 0.000001 -0.000000 0.000001 0.000001 -0.000000 -0.000000 0.000001 0.000000 0.000000 0.000000 0.000000 
-2.877087 92.282257 2.893580 -4.141799 -41.297557 0.505687 -0.000000 -0.000000 -0.000000 -22.632873 39.084170 20.879759 28.997923 5.652061 -0.845136 -6.170083 1.614948 -5.951098 0.000000 -0.000000 -0.000000 0.000000 -0.000000 -0.000000 -0.979894 4.789481 -14.355207 28.172223 1.407001 1.129774 -20.493100 -18.994531 10.382108 0.000000 0.000003 -0.000000 0.000004 -0.000002 0.000000 2.938571 -0.190618 -0.503204 5.876160 -0.356099 -0.880734 5.876159 -0.356113 -0.880734 -0.387171 5.216462 -1.039761 -0.387166 5.216462 -1.039766 0.000002 -0.000001 0.000000 -0.387278 5.216370 -1.039717 -0.387200 5.216563 -1.039759 0.000000 -0.000000 -0.000000 0.000002 -0.000001 0.000000 -18.930216 7.368576 -4.651457 -5.412352 -20.354476 -73.952480 -20.415061 -66.639649 -24.800125 -101.343301 -25.603215 17.299180 3.607990 4.161192 -5.186989 1.252884 4.302602 1.889360 0.000000 -0.000000 -0.000005 7.560307 5.577941 -33.487188 -14.935815 -6.726684 -80.786070 -0.000000 -0.000003 0.000001 -0.356056 -1.571122 -63.104862 -6.190362 -6.582810 -60.389275 -0.000000 -0.000000 -0.000000 -5.306902 4.629040 -73.607166 0.754297 -3.528073 -58.352458 -0.000000 0.000001 0.000002 -16.323172 1.439292 -86.288867 2.606360 -7.582780 -55.814247 -0.000000 -0.000007 -0.000004 -0.000000 0.000000 0.000000 -0.000000 0.000000 0.000000 -0.000000 0.000000 0.000001 -0.000001 0.000001 -0.000001 -0.000002 0.000000 -0.000001 -0.000001 0.000001 -0.000001 -0.000001 0.000002 -0.000001 14.821258 0.159722 -0.522535 2.427409 39.320214 41.854559 -9.037753 114.421494 5.036970 -36.540071 -19.893599 4.288756 15.444957 -4.516476 17.043752 11.554153 4.005377 -20.415167 -0.000001 0.000000 -0.000000 1.855560 -0.979945 4.812436 -1.775981 -0.096041 22.327888 -0.000001 -0.000001 -0.000000 3.628617 5.783872 48.927155 -9.388811 -0.930741 110.882473 0.000000 -0.000001 -0.000001 -8.680911 -5.664611 54.965271 -4.726579 8.866903 96.919257 0.000001 0.000003 -0.000002 -12.594142 0.075968 69.961949 -3.500775 14.106211 79.878653 0.000002 0.000003 -0.000001 0.000001 0.000000 -0.000001 0.000001 -0.000000 -0.000001 0.000001 0.000000 -0.000001 0.000000 0.000001 -0.000000 0.000000 0.000000 0.000000 0.000000 0.000001 -0.000000 0.000000 -0.000000 0.000000 0.000002 0.000001 -0.000000 0.000002 0.000001 -0.000000 0.000002 0.000001 -0.000000 0.000002 0.000001 -0.000000 0.000002 0.000001 -0.000000 0.000002 0.000001 -0.000000 0.000002 0.000001 -0.000000 0.000000 0.000001 -0.000000 -0.000000 -0.000000 -0.000000 
-2.824775 92.246651 2.877230 -4.182970 -41.229382 0.546204 -0.000000 -0.000000 0.000000 -22.701133 39.152403 20.876729 29.073513 5.680058 -0.847018 -6.126055 1.396142 -5.960035 0.000000 0.000001 0.000000 0.000000 0.000000 0.000000 -1.139740 4.477307 -14.569403 28.432850 1.437431 1.142408 -20.574703 -18.740731 10.523349 0.000000 0.000001 -0.000000 0.000001 0.000000 -0.000000 2.953713 -0.179539 -0.504250 5.906494 -0.333212 -0.886804 5.906492 -0.333206 -0.886804 -0.430481 5.215534 -1.069560 -0.430479 5.215523 -1.069558 -0.000000 -0.000001 0.000000 -0.430482 5.215539 -1.069561 -0.430414 5.215527 -1.069565 -0.000001 0.000001 -0.000000 -0.000000 -0.000001 0.000000 -18.935258 7.418788 -4.571923 -6.191410 -20.728513 -73.494167 -19.083484 -65.440193 -23.360195 -102.274522 -25.131169 16.771417 3.651414 4.094278 -5.332315 1.252892 4.302575 1.889378 0.000001 -0.000003 -0.000005 7.575438 5.625844 -33.697121 -14.984411 -6.615214 -81.179995 -0.000002 -0.000001 -0.000000 -0.374712 -1.582840 -63.448189 -6.225070 -6.575366 -60.671068 -0.000002 0.000001 0.000001 -5.362706 4.642545 -73.941838 0.744316 -3.546732 -58.542658 -0.000002 0.000001 0.000000 -16.526317 1.479987 -86.666440 2.599706 -7.595822 -55.894911 0.000000 -0.000003 -0.000003 -0.000000 0.000000 -0.000001 -0.000000 0.000000 -0.000001 -0.000001 -0.000000 -0.000001 0.000001 -0.000002 -0.000001 0.000000 -0.000003 -0.000001 0.000001 -0.000002 -0.000001 0.000001 -0.000003 -0.000001 14.806066 0.246305 -0.658417 1.534773 40.383606 42.314651 -9.273659 113.369187 5.295219 -36.831816 -19.734409 3.796645 15.550731 -4.509986 17.136321 11.564762 3.977039 -20.425740 0.000001 -0.000001 -0.000002 1.851309 -0.990758 4.899115 -1.776136 -0.098152 22.358471 -0.000001 0.000000 0.000003 3.621400 5.795682 49.120313 -9.363828 -0.961876 111.229275 0.000001 0.000000 -0.000000 -8.692379 -5.678589 55.171563 -4.761645 8.874908 97.245645 -0.000002 0.000002 -0.000001 -12.682337 0.071121 70.178507 -3.546558 14.143052 80.184215 0.000002 -0.000000 0.000000 -0.000002 0.000000 -0.000001 -0.000002 0.000000 -0.000000 -0.000002 0.000001 -0.000001 0.000001 0.000001 0.000001 0.000001 0.000001 0.000001 0.000001 0.000001 0.000001 0.000001 -0.000000 0.000001 -0.000000 0.000002 -0.000001 -0.000000 0.000002 -0.000001 -0.000000 0.000002 -0.000001 -0.000000 0.000002 -0.000001 -0.000000 0.000002 -0.000001 -0.000000 0.000002 -0.000001 -0.000000 0.000002 -0.000001 0.000000 -0.000002 -0.000000 -0.000000 -0.000000 0.000000 
-2.724064 92.179993 2.821204 -4.099253 -41.005416 0.684241 -0.000000 0.000002 0.000000 -23.481195 39.933831 21.335388 29.457718 5.889977 -0.850338 -6.344069 0.218165 -5.559010 -0.000000 -0.000001 -0.000000 -0.000000 0.000000 -0.000000 -1.366813 4.081477 -14.887079 28.656735 1.477471 1.156891 -20.566313 -18.563182 10.966419 0.000000 0.000000 -0.000000 0.000002 -0.000003 0.000002 2.970593 -0.176810 -0.499718 5.940324 -0.326639 -0.869021 5.940322 -0.326612 -0.869026 -0.513480 5.210850 -1.124912 -0.513472 5.210836 -1.124911 0.000001 -0.000001 0.000000 -0.513478 5.210845 -1.124912 -0.513476 5.210841 -1.124911 -0.000000 0.000000 0.000000 0.000001 -0.000001 -0.000000 -18.950725 7.524504 -4.375248 -6.590925 -20.795677 -72.863085 -18.141134 -64.707716 -22.381710 -103.195136 -24.712840 16.309961 3.715840 3.994631 -5.548387 1.252882 4.302570 1.889374 0.000002 0.000004 -0.000002 7.598767 5.697055 -34.009441 -15.055296 -6.448682 -81.765725 0.000001 -0.000001 0.000000 -0.402450 -1.600050 -63.959053 -6.276667 -6.564017 -61.090284 0.000001 -0.000000 -0.000000 -5.445457 4.663590 -74.439807 0.729334 -3.574414 -58.825687 0.000002 -0.000002 -0.000002 -16.828375 1.544527 -87.227499 2.589776 -7.615171 -56.014924 0.000001 -0.000002 -0.000001 0.000001 -0.000001 -0.000000 0.000001 -0.000001 -0.000000 0.000000 -0.000001 -0.000000 0.000004 -0.000001 0.000000 0.000004 -0.000002 0.000000 0.000004 -0.000001 0.000000 0.000002 -0.000000 0.000000 14.784346 0.356033 -0.892673 0.727509 41.791154 42.761735 -9.490118 112.250054 5.524791 -37.033252 -19.397741 3.261911 15.714640 -4.499367 17.280373 11.581240 3.933002 -20.442215 0.000002 0.000000 -0.000004 1.844821 -1.007590 5.033788 -1.776382 -0.101429 22.406038 -0.000001 -0.000001 0.000004 3.610250 5.814091 49.420425 -9.324671 -1.009730 111.768218 0.000001 0.000001 -0.000001 -8.710076 -5.700316 55.492043 -4.816275 8.887090 97.752841 -0.000000 -0.000001 0.000001 -12.819489 0.062678 70.514989 -3.618238 14.199956 80.659200 0.000002 0.000003 0.000002 -0.000002 0.000000 -0.000000 -0.000002 -0.000000 -0.000000 -0.000002 0.000000 -0.000000 0.000001 -0.000001 -0.000000 0.000001 0.000000 -0.000000 0.000001 -0.000001 -0.000000 0.000001 -0.000000 -0.000000 0.000002 0.000003 -0.000000 0.000002 0.000003 -0.000000 0.000002 0.000003 -0.000000 0.000002 0.000003 -0.000000 0.000002 0.000003 -0.000000 0.000002 0.000003 -0.000000 0.000002 0.000003 -0.000000 -0.000000 -0.000002 -0.000000 -0.000000 0.000002 0.000000 
